<svg width="197" height="197" xmlns="http://www.w3.org/2000/svg" xmlns:xlink="http://www.w3.org/1999/xlink" xml:space="preserve" overflow="hidden"><g transform="translate(-541 -261)"><g><g><g><g><path d="M616.325 455.477 616.325 390.307 596.12 390.307 596.12 360.359 616.325 360.359 616.325 347.456C616.325 314.095 631.417 298.636 664.165 298.636 667.44 298.636 671.964 298.979 676.154 299.477 679.291 299.8 682.405 300.332 685.472 301.069L685.472 328.224C683.699 328.058 681.919 327.96 680.139 327.93 678.144 327.878 676.149 327.853 674.153 327.856 668.379 327.856 663.871 328.64 660.474 330.38 658.19 331.525 656.27 333.284 654.929 335.459 652.822 338.889 651.874 343.585 651.874 349.767L651.874 360.359 683.88 360.359 680.727 377.534 678.383 390.307 651.874 390.307 651.874 457.641C700.401 451.777 738 410.462 738 360.359 738 306.239 694.12 262.359 640 262.359 585.88 262.359 542 306.239 542 360.359 542 406.321 573.638 444.884 616.325 455.477Z" fill="#FFFFFF" fill-rule="nonzero" fill-opacity="1"/></g></g></g></g></g></svg>