<svg width="196" height="196" xmlns="http://www.w3.org/2000/svg" xmlns:xlink="http://www.w3.org/1999/xlink" xml:space="preserve" overflow="hidden"><defs><clipPath id="clip0"><rect x="766" y="460" width="196" height="196"/></clipPath><clipPath id="clip1"><rect x="766" y="460" width="196" height="196"/></clipPath><clipPath id="clip2"><rect x="767" y="460" width="195" height="195"/></clipPath><clipPath id="clip3"><rect x="767" y="460" width="195" height="195"/></clipPath><clipPath id="clip4"><rect x="767" y="460" width="195" height="195"/></clipPath></defs><g clip-path="url(#clip0)" transform="translate(-766 -460)"><g clip-path="url(#clip1)"><g clip-path="url(#clip2)"><g clip-path="url(#clip3)"><g clip-path="url(#clip4)"><path d="M824.12 460.682C813.746 461.172 806.661 462.828 800.468 465.26 794.059 467.759 788.625 471.11 783.22 476.535 777.815 481.96 774.486 487.397 772.006 493.817 769.606 500.023 767.979 507.114 767.521 517.493 767.063 527.873 766.961 531.21 767.012 557.688 767.063 584.164 767.18 587.483 767.682 597.885 768.178 608.256 769.828 615.339 772.261 621.534 774.763 627.944 778.111 633.375 783.538 638.782 788.965 644.189 794.398 647.51 800.833 649.994 807.034 652.391 814.126 654.025 824.504 654.479 834.882 654.934 838.222 655.04 864.692 654.989 891.161 654.938 894.494 654.82 904.893 654.327 915.293 653.834 922.337 652.172 928.535 649.75 934.945 647.243 940.379 643.9 945.782 638.472 951.186 633.043 954.513 627.602 956.991 621.179 959.393 614.978 961.026 607.886 961.476 597.516 961.931 587.108 962.038 583.786 961.988 557.313 961.937 530.839 961.817 527.52 961.324 517.123 960.831 506.725 959.179 499.665 956.747 493.465 954.241 487.055 950.897 481.629 945.473 476.217 940.048 470.806 934.602 467.482 928.182 465.009 921.976 462.608 914.889 460.973 904.511 460.524 894.133 460.076 890.792 459.959 864.313 460.011 837.834 460.062 834.519 460.175 824.12 460.682M825.259 636.939C815.752 636.525 810.591 634.946 807.151 633.624 802.596 631.869 799.351 629.747 795.923 626.352 792.494 622.957 790.389 619.701 788.61 615.156 787.274 611.716 785.666 606.56 785.221 597.053 784.738 586.779 784.636 583.694 784.579 557.663 784.522 531.633 784.622 528.551 785.072 518.273 785.479 508.775 787.068 503.608 788.387 500.169 790.142 495.609 792.257 492.369 795.659 488.944 799.062 485.517 802.309 483.407 806.858 481.629 810.295 480.287 815.45 478.692 824.952 478.24 835.235 477.752 838.316 477.655 864.342 477.598 890.369 477.541 893.458 477.639 903.745 478.092 913.243 478.505 918.413 480.078 921.847 481.407 926.404 483.162 929.647 485.27 933.073 488.679 936.499 492.086 938.611 495.322 940.389 499.881 941.732 503.307 943.328 508.461 943.776 517.969 944.266 528.252 944.377 531.335 944.423 557.359 944.47 583.384 944.378 586.475 943.928 596.749 943.513 606.256 941.937 611.419 940.613 614.863 938.858 619.417 936.743 622.663 933.337 626.087 929.933 629.512 926.69 631.621 922.139 633.4 918.707 634.74 913.545 636.339 904.051 636.791 893.768 637.274 890.687 637.376 864.65 637.433 838.614 637.49 835.542 637.384 825.26 636.939M904.743 505.389C904.754 511.851 910.001 517.081 916.463 517.07 922.924 517.059 928.154 511.812 928.143 505.35 928.133 498.889 922.885 493.659 916.424 493.67 916.422 493.67 916.42 493.67 916.419 493.67 909.959 493.683 904.733 498.93 904.743 505.389M814.438 557.597C814.492 585.248 836.949 607.613 864.593 607.561 892.24 607.508 914.619 585.054 914.567 557.403 914.514 529.752 892.053 507.381 864.403 507.435 836.754 507.49 814.386 529.95 814.438 557.597M832 557.563C831.965 539.613 846.487 525.034 864.436 524.999 882.385 524.963 896.964 539.485 897 557.434 897.035 575.383 882.514 589.963 864.565 589.998 846.618 590.036 832.038 575.517 832 557.57 832 557.567 832 557.565 832 557.563" fill="#FFFFFF" fill-rule="nonzero" fill-opacity="1"/></g></g></g></g></g></svg>