<svg width="197" height="196" xmlns="http://www.w3.org/2000/svg" xmlns:xlink="http://www.w3.org/1999/xlink" xml:space="preserve" overflow="hidden"><defs><clipPath id="clip0"><rect x="268" y="117" width="197" height="196"/></clipPath><clipPath id="clip1"><rect x="268" y="117" width="197" height="196"/></clipPath><clipPath id="clip2"><rect x="269" y="118" width="196" height="195"/></clipPath><clipPath id="clip3"><rect x="269" y="118" width="196" height="195"/></clipPath><clipPath id="clip4"><rect x="269" y="118" width="196" height="195"/></clipPath></defs><g clip-path="url(#clip0)" transform="translate(-268 -117)"><g clip-path="url(#clip1)"><g clip-path="url(#clip2)"><g clip-path="url(#clip3)"><g clip-path="url(#clip4)"><path d="M195 44.3381 195 157.349C195 164.694 189.052 170.641 181.708 170.641L150.678 170.641 150.678 95.3062 97.5 135.2 44.3219 95.3062 44.3219 170.649 13.2925 170.649C5.95125 170.649-8.09567e-07 164.698-2.18099e-06 157.357-2.1815e-06 157.354-1.35377e-06 157.351 3.02196e-07 157.349L0 44.3381C0 27.9013 18.7606 18.5169 31.9069 28.3806L44.3219 37.7 97.5 77.5775 150.678 37.6838 163.093 28.3806C176.231 18.525 195 27.9013 195 44.3381Z" fill="#FFFFFF" fill-rule="nonzero" fill-opacity="1" transform="matrix(1.00513 0 0 1 269 118)"/></g></g></g></g></g></svg>