<svg width="888" height="888" xmlns="http://www.w3.org/2000/svg" xmlns:xlink="http://www.w3.org/1999/xlink" xml:space="preserve" overflow="hidden"><defs><clipPath id="clip0"><rect x="196" y="-84" width="888" height="888"/></clipPath><clipPath id="clip1"><rect x="196" y="-84" width="888" height="888"/></clipPath></defs><g clip-path="url(#clip0)" transform="translate(-196 84)"><g clip-path="url(#clip1)"><path d="M1084 117.909 1084 632.542C1084 665.99 1056.92 693.074 1023.47 693.074L882.165 693.074 882.165 350.01 640 531.68 397.835 350.01 397.835 693.111 256.532 693.111C223.101 693.111 196 666.008 196 632.579 196 632.568 196 632.553 196 632.542L196 117.909C196 43.058 281.433 0.323002 341.299 45.241L397.835 87.68 640 269.276 882.165 87.606 938.701 45.241C998.53 0.359999 1084 43.058 1084 117.909Z" fill="#800000" fill-rule="nonzero" fill-opacity="1"/></g></g></svg>