<?xml version="1.0" encoding="UTF-8"?>
<svg version="1.1" xmlns="http://www.w3.org/2000/svg" width="512" height="512">
<path d="M0 0 C1.59521484 0.00081573 1.59521484 0.00081573 3.22265625 0.00164795 C19.7281543 0.04044133 35.57824616 0.80377144 51.75 4.375 C52.77335449 4.59462402 53.79670898 4.81424805 54.85107422 5.04052734 C96.16406649 14.1036011 134.67566251 32.70704114 166.75 60.375 C167.49507813 61.00921875 168.24015625 61.6434375 169.0078125 62.296875 C182.51279833 74.10801515 195.18418743 86.85860228 205.75 101.375 C206.60649066 102.52494831 207.46326433 103.67468589 208.3203125 104.82421875 C214.36148664 113.01589456 219.73295056 121.523385 224.75 130.375 C225.14687012 131.06625977 225.54374023 131.75751953 225.95263672 132.46972656 C244.67485469 165.36914173 256.67436754 204.78587838 256.98828125 242.8046875 C256.9980751 243.78462677 257.00786896 244.76456604 257.01795959 245.77420044 C257.18339624 266.61551167 257.26591136 286.92539686 252.75 307.375 C252.53037598 308.39835449 252.31075195 309.42170898 252.08447266 310.47607422 C241.78608683 357.42009624 219.11709887 399.83196813 185.75 434.375 C185.15106934 434.99584473 184.55213867 435.61668945 183.93505859 436.25634766 C176.27053772 444.15822143 168.52756268 451.698257 159.75 458.375 C159.22035645 458.78637207 158.69071289 459.19774414 158.14501953 459.62158203 C147.56892446 467.81510023 136.33837251 474.71283906 124.75 481.375 C124.09563965 481.75785156 123.4412793 482.14070313 122.76708984 482.53515625 C102.43007233 494.37793196 79.25513869 501.80111815 56.4375 507.1875 C55.14960571 507.4983252 55.14960571 507.4983252 53.83569336 507.81542969 C46.32250763 509.50577177 39.67319574 509.80905745 31.75 510.375 C31.75 444.045 31.75 377.715 31.75 309.375 C51.88 309.375 72.01 309.375 92.75 309.375 C93.31589844 304.83621094 93.88179688 300.29742187 94.46484375 295.62109375 C94.82480142 292.73631956 95.18479583 289.85155004 95.54492188 286.96679688 C96.11583613 282.39351783 96.68661834 277.82022258 97.2565918 273.24682617 C97.71640491 269.55741231 98.17682889 265.86807514 98.6376667 262.17878914 C98.81289746 260.77510321 98.98791249 259.37139033 99.16270256 257.96764946 C99.4085875 255.99325314 99.65532844 254.01896348 99.90209961 252.04467773 C100.1119474 250.36256447 100.1119474 250.36256447 100.32603455 248.64646912 C100.77027293 245.21856685 101.26116748 241.79682765 101.75 238.375 C78.65 238.375 55.55 238.375 31.75 238.375 C31.6675 229.031875 31.585 219.68875 31.5 210.0625 C31.46358398 207.13463623 31.42716797 204.20677246 31.38964844 201.19018555 C31.37795315 198.83903738 31.36776332 196.48788104 31.359375 194.13671875 C31.33891113 192.94067017 31.31844727 191.74462158 31.29736328 190.5123291 C31.29371809 181.64266246 32.59750819 173.24598333 38 165.9375 C46.47970621 158.03595558 56.91647378 157.0654453 68.03125 157.1796875 C68.96678711 157.18170166 69.90232422 157.18371582 70.86621094 157.18579102 C74.32752455 157.19617608 77.78876772 157.22409806 81.25 157.25 C89.005 157.29125 96.76 157.3325 104.75 157.375 C104.75 136.585 104.75 115.795 104.75 94.375 C41.96931194 88.64897512 41.96931194 88.64897512 -13.625 113.78125 C-30.90616423 130.85668608 -40.13366496 154.01196636 -40.45532227 178.32006836 C-40.46522186 178.97457977 -40.47512146 179.62909119 -40.48532104 180.30343628 C-40.51660028 182.44053686 -40.54155871 184.57765957 -40.56640625 186.71484375 C-40.58700489 188.20700111 -40.60800207 189.69915303 -40.62937927 191.19129944 C-40.68429973 195.09892329 -40.73384007 199.00659715 -40.78222656 202.91430664 C-40.84154603 207.6134609 -40.90760708 212.31252472 -40.97252655 217.01160431 C-41.0701577 224.13268049 -41.159272 231.25381746 -41.25 238.375 C-61.71 238.375 -82.17 238.375 -103.25 238.375 C-103.25 261.805 -103.25 285.235 -103.25 309.375 C-82.79 309.375 -62.33 309.375 -41.25 309.375 C-41.25 375.375 -41.25 441.375 -41.25 509.375 C-84.90492842 500.64401432 -124.33236877 485.4288012 -159.25 457.375 C-159.8181543 456.92253906 -160.38630859 456.47007812 -160.97167969 456.00390625 C-177.46975171 442.7439532 -192.58316758 427.54405639 -204.87109375 410.30078125 C-206.18064831 408.47185661 -207.52082149 406.67102528 -208.875 404.875 C-240.57508739 362.41011679 -256.00972253 309.30491555 -255.6875 256.6875 C-255.68479095 255.64283569 -255.68208191 254.59817139 -255.67929077 253.52185059 C-255.61514155 237.16270762 -254.75474677 221.40698462 -251.25 205.375 C-251.06808105 204.50246582 -250.88616211 203.62993164 -250.69873047 202.73095703 C-240.82443695 156.27147949 -218.16328848 113.54780026 -185.25 79.375 C-184.61787598 78.71564453 -183.98575195 78.05628906 -183.33447266 77.37695312 C-174.19002521 67.88869695 -164.89265991 59.1487956 -154.25 51.375 C-153.09894983 50.51693848 -151.94790823 49.65886549 -150.796875 48.80078125 C-142.60544054 42.76299035 -134.08336568 37.41831137 -125.25 32.375 C-123.5484375 31.39080078 -123.5484375 31.39080078 -121.8125 30.38671875 C-95.96098073 15.80352993 -67.40104059 7.22894479 -38.25 2.375 C-37.17137695 2.18808594 -36.09275391 2.00117187 -34.98144531 1.80859375 C-23.34706227 0.00531268 -11.75016048 -0.0225649 0 0 Z " fill="#800000" transform="translate(255.25,0.625)"/>
</svg>
