<?xml version="1.0" encoding="UTF-8"?>
<svg version="1.1" xmlns="http://www.w3.org/2000/svg" width="50" height="50">
<path d="M0 0 C0.69134033 -0.00478363 1.38268066 -0.00956726 2.0949707 -0.01449585 C3.55064176 -0.01788486 5.00638996 -0.008752 6.46191406 0.01220703 C8.68207497 0.03899704 10.89718261 0.01243603 13.1171875 -0.01953125 C14.53646942 -0.01622696 15.95574821 -0.00982031 17.375 0 C18.65761719 0.00563965 19.94023438 0.0112793 21.26171875 0.01708984 C25.64868033 0.8455853 27.10284359 2.04893404 29.6875 5.6640625 C30.33447266 9.08984375 30.33447266 9.08984375 30.3515625 12.9765625 C30.35634613 13.66790283 30.36112976 14.35924316 30.36605835 15.0715332 C30.36944736 16.52720426 30.3603145 17.98295246 30.33935547 19.43847656 C30.31256546 21.65863747 30.33912647 23.87374511 30.37109375 26.09375 C30.36778946 27.51303192 30.36138281 28.93231071 30.3515625 30.3515625 C30.34310303 32.27548828 30.34310303 32.27548828 30.33447266 34.23828125 C29.5059772 38.62524283 28.30262846 40.07940609 24.6875 42.6640625 C21.26171875 43.31103516 21.26171875 43.31103516 17.375 43.328125 C16.3379895 43.33530045 16.3379895 43.33530045 15.2800293 43.34262085 C13.82435824 43.34600986 12.36861004 43.336877 10.91308594 43.31591797 C8.69292503 43.28912796 6.47781739 43.31568897 4.2578125 43.34765625 C2.83853058 43.34435196 1.41925179 43.33794531 0 43.328125 C-1.28261719 43.32248535 -2.56523437 43.3168457 -3.88671875 43.31103516 C-8.27368033 42.4825397 -9.72784359 41.27919096 -12.3125 37.6640625 C-12.95947266 34.23828125 -12.95947266 34.23828125 -12.9765625 30.3515625 C-12.98134613 29.66022217 -12.98612976 28.96888184 -12.99105835 28.2565918 C-12.99444736 26.80092074 -12.9853145 25.34517254 -12.96435547 23.88964844 C-12.93756546 21.66948753 -12.96412647 19.45437989 -12.99609375 17.234375 C-12.99278946 15.81509308 -12.98638281 14.39581429 -12.9765625 12.9765625 C-12.97092285 11.69394531 -12.9652832 10.41132813 -12.95947266 9.08984375 C-11.5468121 1.60967281 -7.05686251 0.03102892 0 0 Z M-2.3125 12.6640625 C2.06122561 17.78099651 2.06122561 17.78099651 6.6875 22.6640625 C9.93270887 22.58017988 11.39998744 21.89688245 13.92578125 19.8515625 C14.61027344 19.1296875 15.29476563 18.4078125 16 17.6640625 C16.69738281 16.9421875 17.39476563 16.2203125 18.11328125 15.4765625 C19.79678925 13.93834601 19.79678925 13.93834601 19.6875 12.6640625 C12.4275 12.6640625 5.1675 12.6640625 -2.3125 12.6640625 Z M-5.3125 15.6640625 C-5.3125 19.6240625 -5.3125 23.5840625 -5.3125 27.6640625 C-3.3325 26.0140625 -1.3525 24.3640625 0.6875 22.6640625 C-0.85123177 18.94546071 -1.78761388 18.30772709 -5.3125 15.6640625 Z M19.125 18.1640625 C17.9184375 19.4015625 17.9184375 19.4015625 16.6875 20.6640625 C18.22623177 24.38266429 19.16261388 25.02039791 22.6875 27.6640625 C22.6875 23.7040625 22.6875 19.7440625 22.6875 15.6640625 C21.21013018 15.54767519 21.21013018 15.54767519 19.125 18.1640625 Z M-2.3125 30.6640625 C4.9475 30.6640625 12.2075 30.6640625 19.6875 30.6640625 C15.61905106 24.6151662 15.61905106 24.6151662 11.75 23.8671875 C10.739375 23.88265625 9.72875 23.898125 8.6875 23.9140625 C7.676875 23.89859375 6.66625 23.883125 5.625 23.8671875 C1.75594894 24.6151662 1.75594894 24.6151662 -2.3125 30.6640625 Z " fill="#800000" transform="translate(16.3125,3.3359375)"/>
</svg>
