<?xml version="1.0" encoding="UTF-8"?>
<svg version="1.1" xmlns="http://www.w3.org/2000/svg" width="256" height="256">
<path d="M0 0 C0.80263985 -0.00438225 1.6052797 -0.00876451 2.43224198 -0.01327956 C5.13118634 -0.02667106 7.83009804 -0.03284732 10.52906799 -0.03897095 C12.4607559 -0.04687191 14.39244233 -0.05514085 16.3241272 -0.06375122 C22.67831511 -0.08998141 29.03250963 -0.10528413 35.38673401 -0.11953735 C37.57533841 -0.12489743 39.76394276 -0.13027494 41.95254707 -0.13566971 C51.06028262 -0.1573037 60.16801639 -0.17603816 69.27577114 -0.1872921 C82.31847818 -0.20351471 95.36088651 -0.23664571 108.40348095 -0.29369295 C117.57817536 -0.33244956 126.7527901 -0.35193182 135.9275642 -0.35721266 C141.4042728 -0.36085948 146.88066288 -0.37280898 152.35728264 -0.4053154 C157.51608257 -0.43549497 162.67437292 -0.44167256 167.83324242 -0.42993164 C169.71975356 -0.4297117 171.60628902 -0.43795008 173.49271774 -0.45558548 C187.41802533 -0.57860717 198.69149161 0.78960861 209.23048401 10.9078064 C216.10839262 18.73908848 219.51107095 26.89592772 219.47729492 37.31152344 C219.4825316 38.11672656 219.48776828 38.92192969 219.49316365 39.75153291 C219.50812761 42.44120734 219.50886801 45.13069091 219.50953674 47.82040405 C219.5171608 49.75253621 219.52558872 51.68466534 219.53475952 53.61679077 C219.55669066 58.86088148 219.56550191 64.10491389 219.57058597 69.34904528 C219.57423203 72.62868342 219.58047349 75.90830635 219.58758736 79.18793869 C219.61207979 90.63932718 219.62513272 102.0906704 219.62867737 113.54208374 C219.63230954 124.19961026 219.66218278 134.85684825 219.70408195 145.51428664 C219.73883319 154.67631277 219.75422667 163.83824354 219.7549234 173.0003351 C219.75571475 178.46692356 219.76438755 183.93321821 219.79292107 189.39973831 C219.8191835 194.54628601 219.82126125 199.69229806 219.80526543 204.83888245 C219.80345727 206.72055102 219.81008398 208.60225097 219.82608414 210.48385239 C219.94095704 224.87843318 218.20753739 236.10949994 207.81642151 246.9546814 C200.33113451 253.25395879 192.05332115 256.30142738 182.40628052 256.30780029 C181.60364067 256.31218255 180.80100081 256.3165648 179.97403854 256.32107985 C177.27509418 256.33447135 174.57618248 256.34064761 171.87721252 256.34677124 C169.94552462 256.3546722 168.01383819 256.36294115 166.08215332 256.37155151 C159.72796541 256.3977817 153.37377089 256.41308443 147.01954651 256.42733765 C144.83094211 256.43269773 142.64233776 256.43807524 140.45373344 256.44347 C131.3459979 256.46510399 122.23826412 256.48383845 113.13050938 256.49509239 C100.08780234 256.511315 87.04539401 256.544446 74.00279957 256.60149324 C64.82810515 256.64024985 55.65349042 256.65973212 46.47871631 256.66501296 C41.00200771 256.66865977 35.52561764 256.68060928 30.04899788 256.71311569 C24.89019795 256.74329527 19.73190759 256.74947285 14.5730381 256.73773193 C12.68652696 256.737512 10.7999915 256.74575037 8.91356277 256.76338577 C-5.01174481 256.88640746 -16.28521109 255.51819168 -26.82420349 245.3999939 C-33.7021121 237.56871181 -37.10479044 229.41187258 -37.0710144 218.99627686 C-37.07625108 218.19107373 -37.08148776 217.3858706 -37.08688313 216.55626738 C-37.10184709 213.86659296 -37.10258749 211.17710938 -37.10325623 208.48739624 C-37.11088028 206.55526408 -37.11930821 204.62313496 -37.128479 202.69100952 C-37.15041014 197.44691881 -37.15922139 192.20288641 -37.16430545 186.95875502 C-37.16795151 183.67911687 -37.17419297 180.39949394 -37.18130684 177.1198616 C-37.20579927 165.66847311 -37.2188522 154.21712989 -37.22239685 142.76571655 C-37.22602902 132.10819004 -37.25590226 121.45095205 -37.29780143 110.79351366 C-37.33255267 101.63148752 -37.34794615 92.46955676 -37.34864289 83.3074652 C-37.34943423 77.84087674 -37.35810704 72.37458208 -37.38664055 66.90806198 C-37.41290298 61.76151428 -37.41498073 56.61550223 -37.39898491 51.46891785 C-37.39717676 49.58724927 -37.40380346 47.70554932 -37.41980362 45.82394791 C-37.53467652 31.42936711 -35.80125688 20.19830035 -25.41014099 9.3531189 C-17.92485399 3.0538415 -9.64704063 0.00637291 0 0 Z M1.89064026 44.96640015 C-2.90062959 51.90043234 -5.90622438 59.11960554 -5.94403076 67.5721283 C-5.95118607 68.67239853 -5.95834137 69.77266876 -5.9657135 70.90628052 C-5.9684024 72.10891541 -5.97109131 73.31155029 -5.97386169 74.55062866 C-5.98043289 75.82101486 -5.98700409 77.09140106 -5.99377441 78.40028381 C-6.01477594 82.61111192 -6.02517625 86.8219402 -6.03514099 91.0328064 C-6.03919064 92.48624121 -6.04330763 93.93967584 -6.04749107 95.39311028 C-6.06653775 102.2258944 -6.08076732 109.05866779 -6.08910304 115.89147335 C-6.09886016 123.75809104 -6.12514166 131.62442621 -6.16560394 139.49094445 C-6.19585817 145.58371793 -6.21058087 151.67641088 -6.21388406 157.76925796 C-6.21622483 161.40205592 -6.22505658 165.03455192 -6.25034523 168.66726875 C-6.27816212 172.72882693 -6.27376656 176.78976224 -6.26683044 180.85140991 C-6.2796405 182.03987518 -6.29245056 183.22834045 -6.3056488 184.45281982 C-6.24325882 194.51606658 -3.96714462 203.05540125 2.20314026 211.15390015 C2.73939026 211.97890015 3.27564026 212.80390015 3.82814026 213.65390015 C10.93040047 221.12996353 21.02441467 225.19834689 31.22264099 225.5415802 C33.53750637 225.56228925 35.85255443 225.56674955 38.16749573 225.55795288 C39.43861206 225.56481613 40.70972839 225.57167938 42.0193634 225.57875061 C45.48234273 225.59658556 48.94506734 225.59553188 52.40807867 225.58980823 C55.31037507 225.5867018 58.21262356 225.592825 61.11491311 225.59884697 C67.96809375 225.61285932 74.82114965 225.6113589 81.67433167 225.59994507 C88.71867405 225.58847132 95.76263538 225.60253426 102.80692756 225.62934154 C108.87859536 225.65157303 114.95014419 225.65811911 121.02184975 225.65226513 C124.63777113 225.64891155 128.25344845 225.65120283 131.86933517 225.66851616 C135.90646341 225.68700538 139.94286132 225.67272212 143.97999573 225.65560913 C145.16060577 225.6652771 146.34121582 225.67494507 147.55760193 225.68490601 C158.7256588 225.58620915 168.5876739 222.44002697 177.20314026 215.15390015 C184.05024863 207.92469868 188.30572378 198.70427634 188.35031128 188.735672 C188.35746658 187.63540176 188.36462189 186.53513153 188.37199402 185.40151978 C188.37468292 184.19888489 188.37737183 182.99625 188.38014221 181.75717163 C188.38999901 179.85159233 188.38999901 179.85159233 188.40005493 177.90751648 C188.42105646 173.69668838 188.43145677 169.48586009 188.44142151 165.2749939 C188.44547116 163.82155908 188.44958814 162.36812445 188.45377159 160.91469002 C188.47281827 154.08190589 188.48704784 147.2491325 188.49538356 140.41632694 C188.50514068 132.54970925 188.53142218 124.68337408 188.57188445 116.81685585 C188.60213869 110.72408237 188.61686139 104.63138942 188.62016457 98.53854233 C188.62250535 94.90574437 188.6313371 91.27324837 188.65662575 87.64053154 C188.68444264 83.57897336 188.68004708 79.51803805 188.67311096 75.45639038 C188.68592102 74.26792511 188.69873108 73.07945984 188.71192932 71.85498047 C188.64953934 61.79173371 186.37342513 53.25239904 180.20314026 45.15390015 C179.39876526 43.91640015 179.39876526 43.91640015 178.57814026 42.65390015 C171.47588005 35.17783677 161.38186584 31.10945341 151.18363953 30.76622009 C148.86877415 30.74551104 146.55372609 30.74105074 144.23878479 30.74984741 C142.96766846 30.74298416 141.69655212 30.73612091 140.38691711 30.72904968 C136.92393778 30.71121473 133.46121318 30.71226842 129.99820185 30.71799207 C127.09590545 30.72109849 124.19365696 30.7149753 121.29136741 30.70895332 C114.43818677 30.69494098 107.58513087 30.6964414 100.73194885 30.70785522 C93.68760646 30.71932897 86.64364514 30.70526603 79.59935296 30.67845875 C73.52768516 30.65622726 67.45613633 30.64968118 61.38443077 30.65553516 C57.76850939 30.65888874 54.15283207 30.65659746 50.53694534 30.63928413 C46.4998171 30.62079491 42.4634192 30.63507817 38.42628479 30.65219116 C37.24567474 30.64252319 36.0650647 30.63285522 34.84867859 30.62289429 C22.27274559 30.73403314 9.94971771 34.83211026 1.89064026 44.96640015 Z " fill="#800000" transform="translate(36.79685974121094,-0.153900146484375)"/>
<path d="M0 0 C1.25759628 -0.00511093 2.51519257 -0.01022186 3.81089783 -0.01548767 C7.24894918 -0.02883952 10.68689035 -0.02946065 14.12496257 -0.02692437 C17.00013754 -0.02585213 19.87529045 -0.03074446 22.75046068 -0.03552979 C29.53580579 -0.04661164 36.32109554 -0.04706975 43.10644531 -0.04101562 C50.09563987 -0.03497532 57.08463313 -0.0472912 64.07379335 -0.06858569 C70.08502733 -0.08622408 76.09619737 -0.09219956 82.10745627 -0.08894795 C85.69307626 -0.08713861 89.27855264 -0.08973625 92.86414909 -0.10366249 C96.86399197 -0.11861746 100.86342722 -0.10925124 104.86328125 -0.09765625 C106.63478546 -0.10912186 106.63478546 -0.10912186 108.44207764 -0.12081909 C116.20791062 -0.07106353 122.07061892 0.79626614 128.18383789 5.9621582 C128.72395508 6.39915039 129.26407227 6.83614258 129.82055664 7.28637695 C135.85756761 14.44917086 136.07507324 21.16244514 136.01391602 30.1730957 C136.02092529 31.44888489 136.02793457 32.72467407 136.03515625 34.03912354 C136.05329737 37.51857146 136.04636079 40.99754175 136.03363991 44.47699738 C136.02346406 48.13010378 136.03291825 51.78317117 136.03918457 55.4362793 C136.04644772 61.56932871 136.03690849 67.70218503 136.01782227 73.83520508 C135.9960559 80.91084202 136.00310823 87.98601782 136.02512789 95.0616436 C136.0433201 101.15278997 136.04582163 107.24379807 136.03537321 113.33496284 C136.02915917 116.96587805 136.0282446 120.59657699 136.04151917 124.22747803 C136.05529304 128.27733361 136.03616601 132.32640283 136.01391602 136.3762207 C136.02201294 137.56918762 136.03010986 138.76215454 136.03845215 139.99127197 C135.95783635 147.92545011 134.87860898 153.3446509 129.56665039 159.5168457 C128.92469727 160.05567383 128.28274414 160.59450195 127.62133789 161.1496582 C126.98454102 161.70395508 126.34774414 162.25825195 125.69165039 162.8293457 C119.25695767 167.06570924 112.41420732 166.56485809 104.99267578 166.54931641 C103.10628136 166.5569828 103.10628136 166.5569828 101.18177795 166.56480408 C97.7437266 166.57815592 94.30578543 166.57877706 90.86771321 166.57624078 C87.99253824 166.57516853 85.11738533 166.58006087 82.2422151 166.5848462 C75.45686999 166.59592805 68.67158024 166.59638616 61.88623047 166.59033203 C54.89703592 166.58429173 47.90804265 166.5966076 40.91888243 166.6179021 C34.90764845 166.63554049 28.89647841 166.64151597 22.88521951 166.63826436 C19.29959952 166.63645502 15.71412314 166.63905266 12.12852669 166.6529789 C8.12868381 166.66793387 4.12924856 166.65856764 0.12939453 166.64697266 C-1.64210968 166.65843826 -1.64210968 166.65843826 -3.44940186 166.6701355 C-11.21523484 166.62037993 -17.07794313 165.75305027 -23.19116211 160.5871582 C-23.7312793 160.15016602 -24.27139648 159.71317383 -24.82788086 159.26293945 C-30.86489183 152.10014555 -31.08239746 145.38687126 -31.02124023 136.3762207 C-31.02824951 135.10043152 -31.03525879 133.82464233 -31.04248047 132.51019287 C-31.06062159 129.03074494 -31.05368501 125.55177466 -31.04096413 122.07231903 C-31.03078828 118.41921263 -31.04024246 114.76614524 -31.04650879 111.11303711 C-31.05377194 104.97998769 -31.04423271 98.84713138 -31.02514648 92.71411133 C-31.00338012 85.63847438 -31.01043245 78.56329859 -31.03245211 71.48767281 C-31.05064432 65.39652644 -31.05314585 59.30551834 -31.04269743 53.21435356 C-31.03648339 49.58343835 -31.03556882 45.95273942 -31.04884338 42.32183838 C-31.06261725 38.27198279 -31.04349022 34.22291358 -31.02124023 30.1730957 C-31.02933716 28.98012878 -31.03743408 27.78716187 -31.04577637 26.55804443 C-30.96516057 18.6238663 -29.8859332 13.2046655 -24.57397461 7.0324707 C-23.93202148 6.49364258 -23.29006836 5.95481445 -22.62866211 5.3996582 C-21.99186523 4.84536133 -21.35506836 4.29106445 -20.69897461 3.7199707 C-14.26428189 -0.51639283 -7.42153154 -0.01554168 0 0 Z M93.16821289 21.8527832 C90.5353866 25.96889191 89.79329151 29.35333354 90.49633789 34.2746582 C92.25091232 39.20615438 94.94431201 42.30127232 99.64086914 44.61450195 C103.39874744 45.9515155 106.59392834 45.9515155 110.35180664 44.61450195 C115.04836377 42.30127232 117.74176346 39.20615438 119.49633789 34.2746582 C120.19938427 29.35333354 119.45728918 25.96889191 116.82446289 21.8527832 C113.56225047 17.97650727 109.93652056 16.48039858 104.99633789 15.7746582 C100.05615522 16.48039858 96.43042531 17.97650727 93.16821289 21.8527832 Z M13.49633789 48.2746582 C3.12432032 60.53446977 -0.42080257 74.51342953 0.49633789 90.2746582 C2.49273403 102.99745394 8.88099125 114.74838212 18.49633789 123.2746582 C32.18300737 133.23014145 45.77737291 137.12307252 62.65649414 134.84887695 C76.83408216 131.8041512 88.88577733 123.06071895 96.89086914 111.09887695 C103.95745281 98.6678794 106.84378479 84.70285508 103.37133789 70.6496582 C98.55376681 55.46092716 90.46427627 44.90269259 76.65258789 36.8996582 C55.26666607 25.88908459 29.90647959 30.7634031 13.49633789 48.2746582 Z " fill="#800000" transform="translate(75.503662109375,44.725341796875)"/>
<path d="M0 0 C8.95648418 6.27983373 15.66660385 14.78968937 17.7890625 25.6796875 C18.70869237 37.51426861 17.12346977 47.48810667 9.48046875 56.8359375 C2.4101837 64.54303806 -5.61158992 70.08916495 -16.27734375 70.91796875 C-28.10930008 71.16914995 -37.37988255 68.78105783 -46.2109375 60.6796875 C-54.24448072 52.89307696 -58.28605546 44.29913097 -58.5234375 33.1171875 C-58.4148686 21.50031473 -54.35103571 13.01450341 -46.36328125 4.7734375 C-33.55032471 -7.24985373 -15.13264101 -9.03680682 0 0 Z " fill="#800000" transform="translate(148.2109375,95.3203125)"/>
</svg>
